# xmcd
#
# Track frame offsets: 
#        150
#        12965
#        22360
#        36892
#        54365
#        68585
#        82702
#        102392
#        116157
#        127217
#        139050
#        156412
#        168937
#        187080
#        201500
#        208307
#        227915
#        241105
#        254710
#        263027
#        287207
#        304265
#        319000
#
# Disc length: 4439 seconds
#
# Revision: 4
# Processed by: cddbd v1.5.1PL0 Copyright (c) Steve Scherf et al.
# Submitted via: ExactAudioCopy v0.95a5
#
DISCID=5f115517
DTITLE=Various Artist - Hank Williams Revisited - I'll Never Get Out of This 
DTITLE=World Alive
DYEAR=1998
DGENRE=Country
TTITLE0=Beasts of Burden - Ramblin' Man
TTITLE1=Hasil Adkins - You Win Again
TTITLE2=Charlie Feathers - Lonesome Whistle
TTITLE3=Burning Rubber Dolls - Weary Blues from Waitin'
TTITLE4=Freddy Fender - I Can't Help It
TTITLE5=Al Green - I'm So Lonesome I Could Cry
TTITLE6=Isaac Hayes - I Can't Help It
TTITLE7=Charlie Rich - You Win Again
TTITLE8=Joe Patek - May You Never Be Alone Like Me
TTITLE9=Townes Van Zandt - Lost Highway
TTITLE10=Bedlam Rovers - Lonesome Whistle
TTITLE11=Skeeter Davis and NRBQ - May You Never Be Alone Like Me
TTITLE12=Buckwheat Zydeco and Dwight Yoakam - Hey Good Lookin'
TTITLE13=Alfred A. Alfa - Your Cheatin' Heart
TTITLE14=Jad Fair - Jambalaya
TTITLE15=Link Wray - I Can't Help It
TTITLE16=Stephan Eicher - I'm So Lonesome I Could Cry
TTITLE17=Killdozer - I Saw The Light
TTITLE18=Mekons - Alone and Forsaken
TTITLE19=APC Allstars - Jambalaya
TTITLE20=The Bartlebees - Nobody's Lonesome For Me
TTITLE21=The Residents - Ramblin' Man
TTITLE22=Teenage Larvae - I'm So Lonesome I Could Cry
EXTD=
EXTT0=
EXTT1=
EXTT2=
EXTT3=
EXTT4=
EXTT5=
EXTT6=
EXTT7=
EXTT8=
EXTT9=
EXTT10=
EXTT11=
EXTT12=
EXTT13=
EXTT14=
EXTT15=
EXTT16=
EXTT17=
EXTT18=
EXTT19=
EXTT20=
EXTT21=
EXTT22=
PLAYORDER=
